<svg width="630" height="630" viewBox="0 0 630 630" fill="none" xmlns="http://www.w3.org/2000/svg">
<path d="M213.979 488.988C213.979 491.449 211.148 493.418 207.58 493.418C203.52 493.787 200.689 491.818 200.689 488.988C200.689 486.527 203.52 484.559 207.088 484.559C210.779 484.189 213.979 486.158 213.979 488.988ZM175.711 483.451C174.85 485.912 177.311 488.742 181.002 489.48C184.201 490.711 187.893 489.48 188.631 487.02C189.369 484.559 187.031 481.729 183.34 480.621C180.141 479.76 176.572 480.99 175.711 483.451ZM230.098 481.359C226.529 482.221 224.068 484.559 224.438 487.389C224.807 489.85 228.006 491.449 231.697 490.588C235.266 489.727 237.727 487.389 237.357 484.928C236.988 482.59 233.666 480.99 230.098 481.359ZM311.062 9.84375C140.396 9.84375 9.84375 139.412 9.84375 310.078C9.84375 446.537 95.7305 563.309 218.408 604.406C234.158 607.236 239.695 597.516 239.695 589.518C239.695 581.889 239.326 539.807 239.326 513.967C239.326 513.967 153.193 532.424 135.105 477.299C135.105 477.299 121.078 441.492 100.898 432.264C100.898 432.264 72.7207 412.945 102.867 413.314C102.867 413.314 133.506 415.775 150.363 445.061C177.311 492.557 222.469 478.898 240.064 470.777C242.895 451.09 250.893 437.432 259.752 429.311C190.969 421.682 121.57 411.715 121.57 293.344C121.57 259.506 130.922 242.525 150.609 220.869C147.41 212.871 136.951 179.895 153.809 137.32C179.525 129.322 238.711 170.543 238.711 170.543C263.32 163.652 289.775 160.084 315.984 160.084C342.193 160.084 368.648 163.652 393.258 170.543C393.258 170.543 452.443 129.199 478.16 137.32C495.018 180.018 484.559 212.871 481.359 220.869C501.047 242.648 513.105 259.629 513.105 293.344C513.105 412.084 440.631 421.559 371.848 429.311C383.168 439.031 392.766 457.488 392.766 486.404C392.766 527.871 392.396 579.182 392.396 589.271C392.396 597.27 398.057 606.99 413.684 604.16C536.73 563.309 620.156 446.537 620.156 310.078C620.156 139.412 481.729 9.84375 311.062 9.84375ZM129.445 434.232C127.846 435.463 128.215 438.293 130.307 440.631C132.275 442.6 135.105 443.461 136.705 441.861C138.305 440.631 137.936 437.801 135.844 435.463C133.875 433.494 131.045 432.633 129.445 434.232ZM116.156 424.266C115.295 425.865 116.525 427.834 118.986 429.064C120.955 430.295 123.416 429.926 124.277 428.203C125.139 426.604 123.908 424.635 121.447 423.404C118.986 422.666 117.018 423.035 116.156 424.266ZM156.023 468.07C154.055 469.67 154.793 473.361 157.623 475.699C160.453 478.529 164.021 478.898 165.621 476.93C167.221 475.33 166.482 471.639 164.021 469.301C161.314 466.471 157.623 466.102 156.023 468.07ZM141.996 449.982C140.027 451.213 140.027 454.412 141.996 457.242C143.965 460.072 147.287 461.303 148.887 460.072C150.855 458.473 150.855 455.273 148.887 452.443C147.164 449.613 143.965 448.383 141.996 449.982Z" fill="#1D2024"/>
</svg>
